<mxfile host="app.diagrams.net" modified="2022-05-23T14:28:38.043Z" agent="5.0 (Windows NT 6.1; Win64; x64) AppleWebKit/537.36 (KHTML, like Gecko) Chrome/101.0.4951.67 Safari/537.36" etag="V91DFtyJZLJgnagJu9_y" version="18.0.6" type="github">
  <diagram id="DiKHqIARhAndssrRODTp" name="Page-1">
    <mxGraphModel dx="1102" dy="582" grid="1" gridSize="10" guides="1" tooltips="1" connect="1" arrows="1" fold="1" page="1" pageScale="1" pageWidth="827" pageHeight="1169" math="0" shadow="0">
      <root>
        <mxCell id="0" />
        <mxCell id="1" parent="0" />
        <mxCell id="fdLc3IRHRXj9bX-6kTsq-1" value="" style="swimlane;startSize=0;" vertex="1" parent="1">
          <mxGeometry x="250" y="100" width="300" height="320" as="geometry" />
        </mxCell>
        <mxCell id="fdLc3IRHRXj9bX-6kTsq-5" value="Manter evento" style="ellipse;whiteSpace=wrap;html=1;" vertex="1" parent="fdLc3IRHRXj9bX-6kTsq-1">
          <mxGeometry x="100" y="50" width="100" height="60" as="geometry" />
        </mxCell>
        <mxCell id="fdLc3IRHRXj9bX-6kTsq-7" style="edgeStyle=orthogonalEdgeStyle;rounded=0;orthogonalLoop=1;jettySize=auto;html=1;entryX=0;entryY=0.5;entryDx=0;entryDy=0;endArrow=none;endFill=0;" edge="1" parent="1" source="fdLc3IRHRXj9bX-6kTsq-2" target="fdLc3IRHRXj9bX-6kTsq-5">
          <mxGeometry relative="1" as="geometry">
            <mxPoint x="240" y="180" as="targetPoint" />
          </mxGeometry>
        </mxCell>
        <mxCell id="fdLc3IRHRXj9bX-6kTsq-2" value="FuncionÃ¡rio Fatec" style="shape=umlActor;verticalLabelPosition=bottom;verticalAlign=top;html=1;outlineConnect=0;" vertex="1" parent="1">
          <mxGeometry x="180" y="150" width="30" height="60" as="geometry" />
        </mxCell>
        <mxCell id="fdLc3IRHRXj9bX-6kTsq-4" value="Manter Evento" style="text;html=1;strokeColor=none;fillColor=none;align=center;verticalAlign=middle;whiteSpace=wrap;rounded=0;" vertex="1" parent="1">
          <mxGeometry x="360" y="440" width="60" height="30" as="geometry" />
        </mxCell>
      </root>
    </mxGraphModel>
  </diagram>
</mxfile>
